<mxfile host="Electron" agent="Mozilla/5.0 (Windows NT 10.0; Win64; x64) AppleWebKit/537.36 (KHTML, like Gecko) draw.io/24.7.17 Chrome/128.0.6613.36 Electron/32.0.1 Safari/537.36" version="24.7.17">
  <diagram name="Page-1" id="0ybpw4rYyCEMNRAODBhI">
    <mxGraphModel dx="2963" dy="1734" grid="1" gridSize="10" guides="1" tooltips="1" connect="1" arrows="1" fold="1" page="1" pageScale="1" pageWidth="850" pageHeight="1100" math="0" shadow="0">
      <root>
        <mxCell id="0" />
        <mxCell id="1" parent="0" />
        <mxCell id="6K-pCEyJw08a1u5wA_cS-6" value="Promote(State)" style="text;html=1;align=center;verticalAlign=middle;whiteSpace=wrap;rounded=0;" vertex="1" parent="1">
          <mxGeometry x="470" y="670" width="890" height="30" as="geometry" />
        </mxCell>
        <mxCell id="xoHWAq65cLSNZu2BRZ2m-1" value="Window" style="rounded=0;whiteSpace=wrap;html=1;" parent="1" vertex="1">
          <mxGeometry x="40" y="10" width="120" height="30" as="geometry" />
        </mxCell>
        <mxCell id="xoHWAq65cLSNZu2BRZ2m-2" value="Scene" style="rounded=0;whiteSpace=wrap;html=1;" parent="1" vertex="1">
          <mxGeometry x="210" y="10" width="120" height="30" as="geometry" />
        </mxCell>
        <mxCell id="xoHWAq65cLSNZu2BRZ2m-4" value="Slider" style="rounded=0;whiteSpace=wrap;html=1;" parent="1" vertex="1">
          <mxGeometry x="390" y="10" width="120" height="30" as="geometry" />
        </mxCell>
        <mxCell id="xoHWAq65cLSNZu2BRZ2m-5" value="Interactivity policy" style="rounded=0;whiteSpace=wrap;html=1;" parent="1" vertex="1">
          <mxGeometry x="660" y="10" width="120" height="30" as="geometry" />
        </mxCell>
        <mxCell id="xoHWAq65cLSNZu2BRZ2m-6" value="State change policy" style="rounded=0;whiteSpace=wrap;html=1;" parent="1" vertex="1">
          <mxGeometry x="820" y="10" width="120" height="30" as="geometry" />
        </mxCell>
        <mxCell id="xoHWAq65cLSNZu2BRZ2m-7" value="Glyph update policy" style="rounded=0;whiteSpace=wrap;html=1;" parent="1" vertex="1">
          <mxGeometry x="980" y="10" width="120" height="30" as="geometry" />
        </mxCell>
        <mxCell id="xoHWAq65cLSNZu2BRZ2m-8" value="Glyph" style="rounded=0;whiteSpace=wrap;html=1;" parent="1" vertex="1">
          <mxGeometry x="1140" y="10" width="120" height="30" as="geometry" />
        </mxCell>
        <mxCell id="xoHWAq65cLSNZu2BRZ2m-9" value="" style="endArrow=none;dashed=1;html=1;strokeWidth=2;rounded=0;" parent="1" target="xoHWAq65cLSNZu2BRZ2m-1" edge="1">
          <mxGeometry width="50" height="50" relative="1" as="geometry">
            <mxPoint x="100" y="1300" as="sourcePoint" />
            <mxPoint x="550" y="130" as="targetPoint" />
          </mxGeometry>
        </mxCell>
        <mxCell id="xoHWAq65cLSNZu2BRZ2m-10" value="" style="endArrow=none;dashed=1;html=1;strokeWidth=2;rounded=0;" parent="1" target="xoHWAq65cLSNZu2BRZ2m-2" edge="1">
          <mxGeometry width="50" height="50" relative="1" as="geometry">
            <mxPoint x="270" y="1300" as="sourcePoint" />
            <mxPoint x="270" y="70" as="targetPoint" />
          </mxGeometry>
        </mxCell>
        <mxCell id="xoHWAq65cLSNZu2BRZ2m-12" value="" style="endArrow=none;dashed=1;html=1;strokeWidth=2;rounded=0;" parent="1" target="xoHWAq65cLSNZu2BRZ2m-4" edge="1">
          <mxGeometry width="50" height="50" relative="1" as="geometry">
            <mxPoint x="450" y="1300" as="sourcePoint" />
            <mxPoint x="450" y="70" as="targetPoint" />
          </mxGeometry>
        </mxCell>
        <mxCell id="xoHWAq65cLSNZu2BRZ2m-13" value="" style="endArrow=none;dashed=1;html=1;strokeWidth=2;rounded=0;" parent="1" target="xoHWAq65cLSNZu2BRZ2m-5" edge="1">
          <mxGeometry width="50" height="50" relative="1" as="geometry">
            <mxPoint x="720" y="1300" as="sourcePoint" />
            <mxPoint x="710" y="70" as="targetPoint" />
          </mxGeometry>
        </mxCell>
        <mxCell id="xoHWAq65cLSNZu2BRZ2m-14" value="" style="endArrow=none;dashed=1;html=1;strokeWidth=2;rounded=0;" parent="1" target="xoHWAq65cLSNZu2BRZ2m-6" edge="1">
          <mxGeometry width="50" height="50" relative="1" as="geometry">
            <mxPoint x="880" y="1300" as="sourcePoint" />
            <mxPoint x="870" y="70" as="targetPoint" />
          </mxGeometry>
        </mxCell>
        <mxCell id="xoHWAq65cLSNZu2BRZ2m-15" value="" style="endArrow=none;dashed=1;html=1;strokeWidth=2;rounded=0;" parent="1" target="xoHWAq65cLSNZu2BRZ2m-7" edge="1">
          <mxGeometry width="50" height="50" relative="1" as="geometry">
            <mxPoint x="1050" y="1300" as="sourcePoint" />
            <mxPoint x="1030" y="70" as="targetPoint" />
          </mxGeometry>
        </mxCell>
        <mxCell id="xoHWAq65cLSNZu2BRZ2m-16" value="" style="endArrow=none;dashed=1;html=1;strokeWidth=2;rounded=0;" parent="1" target="xoHWAq65cLSNZu2BRZ2m-8" edge="1">
          <mxGeometry width="50" height="50" relative="1" as="geometry">
            <mxPoint x="1200" y="1300" as="sourcePoint" />
            <mxPoint x="1190" y="70" as="targetPoint" />
          </mxGeometry>
        </mxCell>
        <mxCell id="xoHWAq65cLSNZu2BRZ2m-17" value="" style="endArrow=classic;html=1;rounded=0;entryX=1;entryY=1;entryDx=0;entryDy=0;exitX=0;exitY=1;exitDx=0;exitDy=0;" parent="1" source="xoHWAq65cLSNZu2BRZ2m-19" target="xoHWAq65cLSNZu2BRZ2m-19" edge="1">
          <mxGeometry width="50" height="50" relative="1" as="geometry">
            <mxPoint x="100" y="100" as="sourcePoint" />
            <mxPoint x="170" y="90" as="targetPoint" />
          </mxGeometry>
        </mxCell>
        <mxCell id="xoHWAq65cLSNZu2BRZ2m-18" value="" style="rounded=0;whiteSpace=wrap;html=1;" parent="1" vertex="1">
          <mxGeometry x="260" y="100" width="20" height="1170" as="geometry" />
        </mxCell>
        <mxCell id="xoHWAq65cLSNZu2BRZ2m-19" value="MouseMove(Point)" style="text;html=1;align=center;verticalAlign=middle;whiteSpace=wrap;rounded=0;" parent="1" vertex="1">
          <mxGeometry x="100" y="70" width="160" height="30" as="geometry" />
        </mxCell>
        <mxCell id="xoHWAq65cLSNZu2BRZ2m-22" value="" style="rounded=0;whiteSpace=wrap;html=1;" parent="1" vertex="1">
          <mxGeometry x="440" y="160" width="20" height="1080" as="geometry" />
        </mxCell>
        <mxCell id="xoHWAq65cLSNZu2BRZ2m-27" value="" style="rounded=0;whiteSpace=wrap;html=1;" parent="1" vertex="1">
          <mxGeometry x="710" y="220" width="20" height="990" as="geometry" />
        </mxCell>
        <mxCell id="xoHWAq65cLSNZu2BRZ2m-28" value="" style="endArrow=classic;html=1;rounded=0;exitX=0;exitY=1;exitDx=0;exitDy=0;entryX=1;entryY=1;entryDx=0;entryDy=0;" parent="1" source="xoHWAq65cLSNZu2BRZ2m-29" target="xoHWAq65cLSNZu2BRZ2m-29" edge="1">
          <mxGeometry width="50" height="50" relative="1" as="geometry">
            <mxPoint x="550" y="190" as="sourcePoint" />
            <mxPoint x="600" y="220" as="targetPoint" />
          </mxGeometry>
        </mxCell>
        <mxCell id="xoHWAq65cLSNZu2BRZ2m-29" value="MouseMove(Slider, Point)" style="text;html=1;align=center;verticalAlign=middle;whiteSpace=wrap;rounded=0;" parent="1" vertex="1">
          <mxGeometry x="460" y="190" width="250" height="30" as="geometry" />
        </mxCell>
        <mxCell id="xoHWAq65cLSNZu2BRZ2m-30" value="" style="endArrow=none;html=1;rounded=0;exitX=0;exitY=1;exitDx=0;exitDy=0;entryX=1;entryY=1;entryDx=0;entryDy=0;startArrow=classic;startFill=1;endFill=0;" parent="1" source="xoHWAq65cLSNZu2BRZ2m-31" target="xoHWAq65cLSNZu2BRZ2m-31" edge="1">
          <mxGeometry width="50" height="50" relative="1" as="geometry">
            <mxPoint x="550" y="250" as="sourcePoint" />
            <mxPoint x="600" y="280" as="targetPoint" />
          </mxGeometry>
        </mxCell>
        <mxCell id="xoHWAq65cLSNZu2BRZ2m-31" value="get_Position()" style="text;html=1;align=center;verticalAlign=middle;whiteSpace=wrap;rounded=0;" parent="1" vertex="1">
          <mxGeometry x="470" y="250" width="240" height="30" as="geometry" />
        </mxCell>
        <mxCell id="xoHWAq65cLSNZu2BRZ2m-32" value="" style="rounded=0;whiteSpace=wrap;html=1;" parent="1" vertex="1">
          <mxGeometry x="870" y="460" width="20" height="60" as="geometry" />
        </mxCell>
        <mxCell id="xoHWAq65cLSNZu2BRZ2m-33" value="" style="endArrow=classic;html=1;rounded=0;exitX=0;exitY=1;exitDx=0;exitDy=0;entryX=1;entryY=1;entryDx=0;entryDy=0;" parent="1" source="xoHWAq65cLSNZu2BRZ2m-34" target="xoHWAq65cLSNZu2BRZ2m-34" edge="1">
          <mxGeometry width="50" height="50" relative="1" as="geometry">
            <mxPoint x="550" y="430" as="sourcePoint" />
            <mxPoint x="600" y="460" as="targetPoint" />
          </mxGeometry>
        </mxCell>
        <mxCell id="xoHWAq65cLSNZu2BRZ2m-34" value="SetState(State, Position.X - Point.X)" style="text;html=1;align=center;verticalAlign=middle;whiteSpace=wrap;rounded=0;" parent="1" vertex="1">
          <mxGeometry x="470" y="430" width="400" height="30" as="geometry" />
        </mxCell>
        <mxCell id="xoHWAq65cLSNZu2BRZ2m-35" value="" style="endArrow=none;html=1;rounded=0;exitX=0;exitY=1;exitDx=0;exitDy=0;entryX=1;entryY=1;entryDx=0;entryDy=0;endFill=0;startArrow=classic;startFill=1;dashed=1;" parent="1" source="xoHWAq65cLSNZu2BRZ2m-36" target="xoHWAq65cLSNZu2BRZ2m-36" edge="1">
          <mxGeometry width="50" height="50" relative="1" as="geometry">
            <mxPoint x="550" y="490" as="sourcePoint" />
            <mxPoint x="600" y="520" as="targetPoint" />
          </mxGeometry>
        </mxCell>
        <mxCell id="xoHWAq65cLSNZu2BRZ2m-36" value="State changed" style="text;html=1;align=center;verticalAlign=middle;whiteSpace=wrap;rounded=0;" parent="1" vertex="1">
          <mxGeometry x="470" y="490" width="400" height="30" as="geometry" />
        </mxCell>
        <mxCell id="xoHWAq65cLSNZu2BRZ2m-37" value="[State changed]" style="text;html=1;align=center;verticalAlign=middle;whiteSpace=wrap;rounded=0;fillColor=none;strokeColor=none;perimeterSpacing=0;shadow=0;glass=0;container=0;dropTarget=0;backgroundOutline=0;comic=0;fontSize=12;" parent="1" vertex="1">
          <mxGeometry x="480" y="550" width="120" height="30" as="geometry" />
        </mxCell>
        <mxCell id="xoHWAq65cLSNZu2BRZ2m-38" value="" style="rounded=0;whiteSpace=wrap;html=1;" parent="1" vertex="1">
          <mxGeometry x="1030" y="850" width="20" height="150" as="geometry" />
        </mxCell>
        <mxCell id="xoHWAq65cLSNZu2BRZ2m-39" value="" style="endArrow=classic;html=1;rounded=0;exitX=0;exitY=1;exitDx=0;exitDy=0;entryX=1;entryY=1;entryDx=0;entryDy=0;" parent="1" source="xoHWAq65cLSNZu2BRZ2m-40" target="xoHWAq65cLSNZu2BRZ2m-40" edge="1">
          <mxGeometry width="50" height="50" relative="1" as="geometry">
            <mxPoint x="550" y="820" as="sourcePoint" />
            <mxPoint x="600" y="850" as="targetPoint" />
          </mxGeometry>
        </mxCell>
        <mxCell id="xoHWAq65cLSNZu2BRZ2m-40" value="Update(Glyph, State)" style="text;html=1;align=center;verticalAlign=middle;whiteSpace=wrap;rounded=0;" parent="1" vertex="1">
          <mxGeometry x="470" y="820" width="560" height="30" as="geometry" />
        </mxCell>
        <mxCell id="xoHWAq65cLSNZu2BRZ2m-41" value="" style="endArrow=classic;html=1;rounded=0;exitX=0;exitY=1;exitDx=0;exitDy=0;entryX=0;entryY=0;entryDx=0;entryDy=0;" parent="1" source="xoHWAq65cLSNZu2BRZ2m-42" edge="1">
          <mxGeometry width="50" height="50" relative="1" as="geometry">
            <mxPoint x="1140" y="880" as="sourcePoint" />
            <mxPoint x="1190" y="910" as="targetPoint" />
          </mxGeometry>
        </mxCell>
        <mxCell id="xoHWAq65cLSNZu2BRZ2m-42" value="SetPosition(Position)" style="text;html=1;align=center;verticalAlign=middle;whiteSpace=wrap;rounded=0;" parent="1" vertex="1">
          <mxGeometry x="1050" y="880" width="140" height="30" as="geometry" />
        </mxCell>
        <mxCell id="xoHWAq65cLSNZu2BRZ2m-43" value="" style="rounded=0;whiteSpace=wrap;html=1;" parent="1" vertex="1">
          <mxGeometry x="1190" y="910" width="20" height="60" as="geometry" />
        </mxCell>
        <mxCell id="xoHWAq65cLSNZu2BRZ2m-44" value="" style="endArrow=classic;html=1;rounded=0;exitX=0;exitY=1;exitDx=0;exitDy=0;entryX=1;entryY=1;entryDx=0;entryDy=0;" parent="1" source="xoHWAq65cLSNZu2BRZ2m-45" target="xoHWAq65cLSNZu2BRZ2m-45" edge="1">
          <mxGeometry width="50" height="50" relative="1" as="geometry">
            <mxPoint x="550" y="1030" as="sourcePoint" />
            <mxPoint x="600" y="1060" as="targetPoint" />
          </mxGeometry>
        </mxCell>
        <mxCell id="xoHWAq65cLSNZu2BRZ2m-45" value="Redraw(Empty)" style="text;html=1;align=center;verticalAlign=middle;whiteSpace=wrap;rounded=0;" parent="1" vertex="1">
          <mxGeometry x="470" y="1030" width="720" height="30" as="geometry" />
        </mxCell>
        <mxCell id="xoHWAq65cLSNZu2BRZ2m-46" value="" style="rounded=0;whiteSpace=wrap;html=1;" parent="1" vertex="1">
          <mxGeometry x="1190" y="1060" width="20" height="60" as="geometry" />
        </mxCell>
        <mxCell id="xoHWAq65cLSNZu2BRZ2m-47" value="" style="endArrow=classic;html=1;rounded=0;exitX=0;exitY=1;exitDx=0;exitDy=0;entryX=1;entryY=1;entryDx=0;entryDy=0;" parent="1" source="xoHWAq65cLSNZu2BRZ2m-48" target="xoHWAq65cLSNZu2BRZ2m-48" edge="1">
          <mxGeometry width="50" height="50" relative="1" as="geometry">
            <mxPoint x="400" y="250" as="sourcePoint" />
            <mxPoint x="450" y="200" as="targetPoint" />
          </mxGeometry>
        </mxCell>
        <mxCell id="xoHWAq65cLSNZu2BRZ2m-48" value="MouseMove(Point)" style="text;html=1;align=center;verticalAlign=middle;whiteSpace=wrap;rounded=0;" parent="1" vertex="1">
          <mxGeometry x="280" y="130" width="160" height="30" as="geometry" />
        </mxCell>
        <mxCell id="xoHWAq65cLSNZu2BRZ2m-51" value="" style="rounded=0;whiteSpace=wrap;html=1;" parent="1" vertex="1">
          <mxGeometry x="450" y="280" width="20" height="60" as="geometry" />
        </mxCell>
        <mxCell id="xoHWAq65cLSNZu2BRZ2m-59" value="" style="endArrow=classic;html=1;rounded=0;exitX=0;exitY=1;exitDx=0;exitDy=0;entryX=1;entryY=1;entryDx=0;entryDy=0;startArrow=none;startFill=0;endFill=1;dashed=1;" parent="1" source="xoHWAq65cLSNZu2BRZ2m-60" target="xoHWAq65cLSNZu2BRZ2m-60" edge="1">
          <mxGeometry width="50" height="50" relative="1" as="geometry">
            <mxPoint x="550" y="310" as="sourcePoint" />
            <mxPoint x="600" y="340" as="targetPoint" />
          </mxGeometry>
        </mxCell>
        <mxCell id="xoHWAq65cLSNZu2BRZ2m-60" value="Position" style="text;html=1;align=center;verticalAlign=middle;whiteSpace=wrap;rounded=0;" parent="1" vertex="1">
          <mxGeometry x="470" y="310" width="240" height="30" as="geometry" />
        </mxCell>
        <mxCell id="xoHWAq65cLSNZu2BRZ2m-61" value="" style="endArrow=none;html=1;rounded=0;exitX=0;exitY=1;exitDx=0;exitDy=0;entryX=1;entryY=1;entryDx=0;entryDy=0;startArrow=classic;startFill=1;endFill=0;" parent="1" source="xoHWAq65cLSNZu2BRZ2m-62" target="xoHWAq65cLSNZu2BRZ2m-62" edge="1">
          <mxGeometry width="50" height="50" relative="1" as="geometry">
            <mxPoint x="550" y="370" as="sourcePoint" />
            <mxPoint x="600" y="400" as="targetPoint" />
          </mxGeometry>
        </mxCell>
        <mxCell id="xoHWAq65cLSNZu2BRZ2m-62" value="SetState(Position.X - Point.X, Promote)" style="text;html=1;align=center;verticalAlign=middle;whiteSpace=wrap;rounded=0;" parent="1" vertex="1">
          <mxGeometry x="470" y="370" width="240" height="30" as="geometry" />
        </mxCell>
        <mxCell id="xoHWAq65cLSNZu2BRZ2m-63" value="" style="rounded=0;whiteSpace=wrap;html=1;" parent="1" vertex="1">
          <mxGeometry x="450" y="400" width="20" height="780" as="geometry" />
        </mxCell>
        <mxCell id="xoHWAq65cLSNZu2BRZ2m-52" value="opt" style="shape=umlFrame;whiteSpace=wrap;html=1;pointerEvents=0;" parent="1" vertex="1">
          <mxGeometry x="360" y="550" width="1060" height="600" as="geometry" />
        </mxCell>
        <mxCell id="6K-pCEyJw08a1u5wA_cS-1" value="State promotion policy" style="rounded=0;whiteSpace=wrap;html=1;" vertex="1" parent="1">
          <mxGeometry x="1300" y="10" width="140" height="30" as="geometry" />
        </mxCell>
        <mxCell id="6K-pCEyJw08a1u5wA_cS-2" value="" style="endArrow=none;dashed=1;html=1;strokeWidth=2;rounded=0;" edge="1" parent="1" target="6K-pCEyJw08a1u5wA_cS-1">
          <mxGeometry width="50" height="50" relative="1" as="geometry">
            <mxPoint x="1370" y="700.0000000000002" as="sourcePoint" />
            <mxPoint x="1360" y="70" as="targetPoint" />
          </mxGeometry>
        </mxCell>
        <mxCell id="6K-pCEyJw08a1u5wA_cS-3" value="" style="endArrow=none;dashed=1;html=1;strokeWidth=2;rounded=0;" edge="1" parent="1" target="6K-pCEyJw08a1u5wA_cS-4">
          <mxGeometry width="50" height="50" relative="1" as="geometry">
            <mxPoint x="1370" y="1300" as="sourcePoint" />
            <mxPoint x="1360" y="40" as="targetPoint" />
          </mxGeometry>
        </mxCell>
        <mxCell id="6K-pCEyJw08a1u5wA_cS-4" value="" style="rounded=0;whiteSpace=wrap;html=1;" vertex="1" parent="1">
          <mxGeometry x="1360" y="700" width="20" height="60" as="geometry" />
        </mxCell>
        <mxCell id="6K-pCEyJw08a1u5wA_cS-5" value="" style="endArrow=classic;html=1;rounded=0;exitX=0;exitY=1;exitDx=0;exitDy=0;entryX=1;entryY=1;entryDx=0;entryDy=0;" edge="1" parent="1" source="6K-pCEyJw08a1u5wA_cS-6" target="6K-pCEyJw08a1u5wA_cS-6">
          <mxGeometry width="50" height="50" relative="1" as="geometry">
            <mxPoint x="550" y="670" as="sourcePoint" />
            <mxPoint x="600" y="700" as="targetPoint" />
          </mxGeometry>
        </mxCell>
        <mxCell id="6K-pCEyJw08a1u5wA_cS-7" value="[Promote]" style="text;html=1;align=center;verticalAlign=middle;whiteSpace=wrap;rounded=0;fillColor=none;strokeColor=none;perimeterSpacing=0;shadow=0;glass=0;container=0;dropTarget=0;backgroundOutline=0;comic=0;fontSize=12;" vertex="1" parent="1">
          <mxGeometry x="480" y="610" width="120" height="30" as="geometry" />
        </mxCell>
        <mxCell id="6K-pCEyJw08a1u5wA_cS-8" value="opt" style="shape=umlFrame;whiteSpace=wrap;html=1;pointerEvents=0;" vertex="1" parent="1">
          <mxGeometry x="370" y="610" width="1040" height="180" as="geometry" />
        </mxCell>
      </root>
    </mxGraphModel>
  </diagram>
</mxfile>
